# xmcd
#
# Track frame offsets: 
#        150
#        10690
#        26181
#        43519
#        61929
#        75590
#        91128
#        107979
#        127543
#        148236
#        162064
#        177821
#        188865
#        202461
#        217282
#        228688
#
# Disc length: 3241 seconds
#
# Revision: 5
# Processed by: cddbd v1.5.2PL0 Copyright (c) Steve Scherf et al.
# Submitted via: ExactAudioCopy v0.99pb4
#
DISCID=df0ca710
DTITLE=Kris Kristofferson - Help Me Make It Through The Night
DYEAR=1900
DGENRE=Country
TTITLE0=Help Me Make It Through The Night
TTITLE1=For The Good Times
TTITLE2=Lovin' Her Was Easier
TTITLE3=He's My Buddy
TTITLE4=Kiss The World Goodbye
TTITLE5=If You Don't Know Hank Williams
TTITLE6=Magdalena
TTITLE7=Silver Tongued Devil And I
TTITLE8=Sunday Mornin' Comin' Down
TTITLE9=When I Loved Her
TTITLE10=Why Me
TTITLE11=The Bandit Of Beverly Hills
TTITLE12=Shake Hands With The Devil
TTITLE13=Shadows Of Your Mind
TTITLE14=Jesus Was A Capricorn
TTITLE15=Daddy's Song
EXTD=Lilo ID3G: 2
EXTT0=
EXTT1=
EXTT2=
EXTT3=
EXTT4=
EXTT5=
EXTT6=
EXTT7=
EXTT8=
EXTT9=
EXTT10=
EXTT11=
EXTT12=
EXTT13=
EXTT14=
EXTT15=
PLAYORDER=
